<svg width="31" height="30" viewBox="0 0 31 30" fill="none" xmlns="http://www.w3.org/2000/svg">
<g opacity="0.5" clip-path="url(#clip0_27130_136)">
<path d="M17.834 5H25.334V12.5H17.834V5Z" stroke="black" stroke-width="2" stroke-linecap="round" stroke-linejoin="round"/>
<path d="M5.33398 17.5H12.834V25H5.33398V17.5Z" stroke="black" stroke-width="2" stroke-linecap="round" stroke-linejoin="round"/>
<path d="M17.834 21.25C17.834 22.2446 18.2291 23.1984 18.9323 23.9017C19.6356 24.6049 20.5894 25 21.584 25C22.5785 25 23.5324 24.6049 24.2356 23.9017C24.9389 23.1984 25.334 22.2446 25.334 21.25C25.334 20.2554 24.9389 19.3016 24.2356 18.5983C23.5324 17.8951 22.5785 17.5 21.584 17.5C20.5894 17.5 19.6356 17.8951 18.9323 18.5983C18.2291 19.3016 17.834 20.2554 17.834 21.25Z" stroke="black" stroke-width="2" stroke-linecap="round" stroke-linejoin="round"/>
<path d="M5.33398 8.75C5.33398 9.24246 5.43098 9.73009 5.61944 10.1851C5.80789 10.64 6.08411 11.0534 6.43233 11.4017C6.78055 11.7499 7.19395 12.0261 7.64892 12.2145C8.10389 12.403 8.59153 12.5 9.08398 12.5C9.57644 12.5 10.0641 12.403 10.519 12.2145C10.974 12.0261 11.3874 11.7499 11.7356 11.4017C12.0839 11.0534 12.3601 10.64 12.5485 10.1851C12.737 9.73009 12.834 9.24246 12.834 8.75C12.834 8.25754 12.737 7.76991 12.5485 7.31494C12.3601 6.85997 12.0839 6.44657 11.7356 6.09835C11.3874 5.75013 10.974 5.47391 10.519 5.28545C10.0641 5.097 9.57644 5 9.08398 5C8.59153 5 8.10389 5.097 7.64892 5.28545C7.19395 5.47391 6.78055 5.75013 6.43233 6.09835C6.08411 6.44657 5.80789 6.85997 5.61944 7.31494C5.43098 7.76991 5.33398 8.25754 5.33398 8.75Z" stroke="black" stroke-width="2" stroke-linecap="round" stroke-linejoin="round"/>
</g>
<defs>
<clipPath id="clip0_27130_136">
<rect width="30" height="30" fill="white" transform="translate(0.333984)"/>
</clipPath>
</defs>
</svg>
